<svg width="24" height="22" viewBox="0 0 24 22" fill="none" xmlns="http://www.w3.org/2000/svg">
<path d="M23 17.9102C23 18.4406 22.7893 18.9493 22.4142 19.3244C22.0391 19.6994 21.5304 19.9102 21 19.9102H3C2.46957 19.9102 1.96086 19.6994 1.58579 19.3244C1.21071 18.9493 1 18.4406 1 17.9102V6.91016C1 6.37972 1.21071 5.87102 1.58579 5.49594C1.96086 5.12087 2.46957 4.91016 3 4.91016H7L9 1.91016H15L17 4.91016H21C21.5304 4.91016 22.0391 5.12087 22.4142 5.49594C22.7893 5.87102 23 6.37972 23 6.91016V17.9102Z" stroke="#201E43" stroke-width="2.5" stroke-linecap="round" stroke-linejoin="round"/>
<path d="M12 15.9102C14.2091 15.9102 16 14.1193 16 11.9102C16 9.70102 14.2091 7.91016 12 7.91016C9.79086 7.91016 8 9.70102 8 11.9102C8 14.1193 9.79086 15.9102 12 15.9102Z" stroke="#201E43" stroke-width="2.5" stroke-linecap="round" stroke-linejoin="round"/>
</svg>
