<svg width="25" height="24" viewBox="0 0 25 24" fill="none" xmlns="http://www.w3.org/2000/svg">
<path d="M12.5 21C10 21 7.875 20.125 6.125 18.375C4.375 16.625 3.5 14.5 3.5 12C3.5 9.5 4.375 7.375 6.125 5.625C7.875 3.875 10 3 12.5 3C12.7333 3 12.9625 3.00833 13.1875 3.025C13.4125 3.04167 13.6333 3.06667 13.85 3.1C13.1667 3.58333 12.6208 4.2125 12.2125 4.9875C11.8042 5.7625 11.6 6.6 11.6 7.5C11.6 9 12.125 10.275 13.175 11.325C14.225 12.375 15.5 12.9 17 12.9C17.9167 12.9 18.7583 12.6958 19.525 12.2875C20.2917 11.8792 20.9167 11.3333 21.4 10.65C21.4333 10.8667 21.4583 11.0875 21.475 11.3125C21.4917 11.5375 21.5 11.7667 21.5 12C21.5 14.5 20.625 16.625 18.875 18.375C17.125 20.125 15 21 12.5 21ZM12.5 19C13.9667 19 15.2833 18.5958 16.45 17.7875C17.6167 16.9792 18.4667 15.925 19 14.625C18.6667 14.7083 18.3333 14.775 18 14.825C17.6667 14.875 17.3333 14.9 17 14.9C14.95 14.9 13.2042 14.1792 11.7625 12.7375C10.3208 11.2958 9.6 9.55 9.6 7.5C9.6 7.16667 9.625 6.83333 9.675 6.5C9.725 6.16667 9.79167 5.83333 9.875 5.5C8.575 6.03333 7.52083 6.88333 6.7125 8.05C5.90417 9.21667 5.5 10.5333 5.5 12C5.5 13.9333 6.18333 15.5833 7.55 16.95C8.91667 18.3167 10.5667 19 12.5 19Z" fill="#201E43"/>
</svg>
