<svg width="260" height="200" viewBox="0 0 260 200" fill="none" xmlns="http://www.w3.org/2000/svg">
<rect width="260" height="200" fill="white"/>
<path fill-rule="evenodd" clip-rule="evenodd" d="M65.5201 134H160.16C160.696 134 161.217 133.944 161.72 133.839C162.223 133.944 162.745 134 163.28 134H217.36C221.381 134 224.64 130.866 224.64 127C224.64 123.134 221.381 120 217.36 120H211.12C207.099 120 203.84 116.866 203.84 113C203.84 109.134 207.099 106 211.12 106H230.88C234.901 106 238.16 102.866 238.16 99C238.16 95.134 234.901 92 230.88 92H208C212.021 92 215.28 88.866 215.28 85C215.28 81.134 212.021 78 208 78H141.44C145.461 78 148.72 74.866 148.72 71C148.72 67.134 145.461 64 141.44 64H82.1601C78.1394 64 74.8801 67.134 74.8801 71C74.8801 74.866 78.1394 78 82.1601 78H40.5601C36.5394 78 33.2801 81.134 33.2801 85C33.2801 88.866 36.5394 92 40.5601 92H66.5601C70.5807 92 73.8401 95.134 73.8401 99C73.8401 102.866 70.5807 106 66.5601 106H24.9601C20.9394 106 17.6801 109.134 17.6801 113C17.6801 116.866 20.9394 120 24.9601 120H65.5201C61.4994 120 58.2401 123.134 58.2401 127C58.2401 130.866 61.4994 134 65.5201 134ZM235.04 134C239.061 134 242.32 130.866 242.32 127C242.32 123.134 239.061 120 235.04 120C231.019 120 227.76 123.134 227.76 127C227.76 130.866 231.019 134 235.04 134Z" fill="#12C1A4"/>
<path fill-rule="evenodd" clip-rule="evenodd" d="M95.68 140C83.0438 140 72.8 130.374 72.8 118.5C72.8 106.626 83.0438 97 95.68 97C96.2174 97 96.7504 97.0174 97.2785 97.0517C96.9116 95.0878 96.72 93.0654 96.72 91C96.72 72.2223 112.551 57 132.08 57C147.671 57 160.905 66.702 165.608 80.1695C166.723 80.0575 167.854 80 169 80C186.519 80 200.72 93.4315 200.72 110C200.72 125.741 187.902 138.727 171.6 139.978V140H112.848H95.68ZM108.156 140H100.913Z" fill="white"/>
<path d="M108.156 140H100.913M95.68 140C83.0438 140 72.8 130.374 72.8 118.5C72.8 106.626 83.0438 97 95.68 97C96.2174 97 96.7504 97.0174 97.2785 97.0517C96.9116 95.0878 96.72 93.0654 96.72 91C96.72 72.2223 112.551 57 132.08 57C147.671 57 160.905 66.702 165.608 80.1695C166.723 80.0575 167.854 80 169 80C186.519 80 200.72 93.4315 200.72 110C200.72 125.741 187.902 138.727 171.6 139.978V140H112.848H95.68Z" stroke="#201E43" stroke-width="2.5" stroke-linecap="round"/>
<path fill-rule="evenodd" clip-rule="evenodd" d="M121.277 64.3426C121.277 96.5657 151.458 123.118 190.32 126.703C185.45 132.461 177.929 136.367 169.361 136.981V137H99.5727C91.1054 137 76.96 133.57 76.96 118.548C76.96 103.527 87.9571 100.097 99.5727 100.097C100.067 100.097 100.557 100.112 101.042 100.141C100.705 98.4556 100.646 96.7184 100.529 94.9474C99.7399 82.9842 105.168 67.907 121.296 63C121.283 63.4473 121.277 63.8944 121.277 64.3426ZM132.201 114.758C129.041 114.758 126.479 117.192 126.479 120.195C126.479 123.198 129.041 125.632 132.201 125.632C135.361 125.632 137.923 123.198 137.923 120.195C137.923 117.192 135.361 114.758 132.201 114.758Z" fill="#E8F0FE"/>
<path d="M132.6 126C135.759 126 138.32 123.538 138.32 120.5C138.32 117.462 135.759 115 132.6 115C129.441 115 126.88 117.462 126.88 120.5C126.88 123.538 129.441 126 132.6 126Z" stroke="#201E43" stroke-width="2.5"/>
<path d="M116.48 109L123.76 103.507L116.48 98.2773" stroke="#201E43" stroke-width="2.5" stroke-linecap="round" stroke-linejoin="round"/>
<path d="M148.72 109L141.44 103.507L148.72 98.2773" stroke="#201E43" stroke-width="2.5" stroke-linecap="round" stroke-linejoin="round"/>
<path d="M142.48 67C149.249 68.7226 154.594 73.8129 156.458 80.2932" stroke="#201E43" stroke-width="2.5" stroke-linecap="round"/>
<path d="M164.32 50C166.043 50 167.44 48.6569 167.44 47C167.44 45.3431 166.043 44 164.32 44C162.597 44 161.2 45.3431 161.2 47C161.2 48.6569 162.597 50 164.32 50Z" stroke="#201E43" stroke-width="2"/>
<path d="M196.56 66C198.283 66 199.68 64.6569 199.68 63C199.68 61.3431 198.283 60 196.56 60C194.837 60 193.44 61.3431 193.44 63C193.44 64.6569 194.837 66 196.56 66Z" fill="#201E43"/>
<path d="M172.388 57.7578L181.08 66.116M181.212 57.7578L172.52 66.116L181.212 57.7578Z" stroke="#201E43" stroke-width="2.5" stroke-linecap="round" stroke-linejoin="round"/>
<path d="M74.26 75.5957L80.5 81.5957M80.5 75.5957L74.26 81.5957L80.5 75.5957Z" stroke="#201E43" stroke-width="2.5" stroke-linecap="round" stroke-linejoin="round"/>
<path d="M88.4 69C90.1232 69 91.52 67.6569 91.52 66C91.52 64.3431 90.1232 63 88.4 63C86.6769 63 85.28 64.3431 85.28 66C85.28 67.6569 86.6769 69 88.4 69Z" fill="#201E43"/>
</svg>
