<svg width="258" height="205" viewBox="0 0 258 205" fill="none" xmlns="http://www.w3.org/2000/svg">
<rect width="258" height="205" fill="white"/>
<path fill-rule="evenodd" clip-rule="evenodd" d="M65.016 137.35H158.928C159.459 137.35 159.977 137.293 160.476 137.185C160.975 137.293 161.493 137.35 162.024 137.35H215.688C219.678 137.35 222.912 134.137 222.912 130.175C222.912 126.212 219.678 123 215.688 123H209.496C205.506 123 202.272 119.787 202.272 115.825C202.272 111.862 205.506 108.65 209.496 108.65H229.104C233.094 108.65 236.328 105.437 236.328 101.475C236.328 97.512 233.094 94.2996 229.104 94.2996H206.4C210.39 94.2996 213.624 91.0873 213.624 87.1246C213.624 83.162 210.39 79.9496 206.4 79.9496H140.352C144.342 79.9496 147.576 76.7373 147.576 72.7746C147.576 68.812 144.342 65.5996 140.352 65.5996H81.528C77.5383 65.5996 74.304 68.812 74.304 72.7746C74.304 76.7373 77.5383 79.9496 81.528 79.9496H40.248C36.2583 79.9496 33.024 83.162 33.024 87.1246C33.024 91.0873 36.2583 94.2996 40.248 94.2996H66.048C70.0377 94.2996 73.272 97.512 73.272 101.475C73.272 105.437 70.0377 108.65 66.048 108.65H24.768C20.7783 108.65 17.544 111.862 17.544 115.825C17.544 119.787 20.7783 123 24.768 123H65.016C61.0263 123 57.792 126.212 57.792 130.175C57.792 134.137 61.0263 137.35 65.016 137.35ZM233.232 137.35C237.222 137.35 240.456 134.137 240.456 130.175C240.456 126.212 237.222 123 233.232 123C229.242 123 226.008 126.212 226.008 130.175C226.008 134.137 229.242 137.35 233.232 137.35Z" fill="#12C1A4"/>
<path fill-rule="evenodd" clip-rule="evenodd" d="M94.944 143.5C82.4049 143.5 72.24 133.633 72.24 121.462C72.24 109.291 82.4049 99.4248 94.944 99.4248C95.4772 99.4248 96.0061 99.4426 96.5301 99.4777C96.166 97.4648 95.976 95.3918 95.976 93.2748C95.976 74.0277 111.685 58.4248 131.064 58.4248C146.535 58.4248 159.667 68.3693 164.334 82.1735C165.44 82.0587 166.563 81.9998 167.7 81.9998C185.084 81.9998 199.176 95.767 199.176 112.75C199.176 128.884 186.457 142.195 170.28 143.477V143.5H111.98M107.324 143.5H100.136Z" fill="white"/>
<path d="M94.944 144.75C95.6343 144.75 96.194 144.19 96.194 143.5C96.194 142.809 95.6343 142.25 94.944 142.25V144.75ZM96.5301 99.4777L96.4466 100.725L98.0454 100.832L97.7602 99.2553L96.5301 99.4777ZM164.334 82.1735L163.15 82.5739L163.47 83.52L164.463 83.4169L164.334 82.1735ZM170.28 143.477L170.181 142.231L169.03 142.323V143.477H170.28ZM170.28 143.5V144.75H171.53V143.5H170.28ZM111.98 142.25C111.29 142.25 110.73 142.809 110.73 143.5C110.73 144.19 111.29 144.75 111.98 144.75V142.25ZM107.324 144.75C108.014 144.75 108.574 144.19 108.574 143.5C108.574 142.809 108.014 142.25 107.324 142.25V144.75ZM100.136 142.25C99.446 142.25 98.8864 142.809 98.8864 143.5C98.8864 144.19 99.446 144.75 100.136 144.75V142.25ZM94.944 142.25C83.0599 142.25 73.49 132.908 73.49 121.462H70.99C70.99 134.358 81.7499 144.75 94.944 144.75V142.25ZM73.49 121.462C73.49 110.017 83.0599 100.675 94.944 100.675V98.1748C81.7499 98.1748 70.99 108.566 70.99 121.462H73.49ZM94.944 100.675C95.4493 100.675 95.9504 100.692 96.4466 100.725L96.6137 98.2305C96.0619 98.1936 95.5051 98.1748 94.944 98.1748V100.675ZM97.7602 99.2553C97.4093 97.3154 97.226 95.3169 97.226 93.2748H94.726C94.726 95.4668 94.9228 97.6142 95.3001 99.7002L97.7602 99.2553ZM97.226 93.2748C97.226 74.726 112.368 59.6748 131.064 59.6748V57.1748C111.003 57.1748 94.726 73.3293 94.726 93.2748H97.226ZM131.064 59.6748C145.987 59.6748 158.651 69.2665 163.15 82.5739L165.518 81.7732C160.683 67.4722 147.082 57.1748 131.064 57.1748V59.6748ZM164.463 83.4169C165.526 83.3065 166.606 83.2498 167.7 83.2498V80.7498C166.52 80.7498 165.354 80.8109 164.205 80.9302L164.463 83.4169ZM167.7 83.2498C184.421 83.2498 197.926 96.4847 197.926 112.75H200.426C200.426 95.0494 185.746 80.7498 167.7 80.7498V83.2498ZM197.926 112.75C197.926 128.206 185.734 140.999 170.181 142.231L170.379 144.724C187.18 143.392 200.426 129.561 200.426 112.75H197.926ZM169.03 143.477V143.5H171.53V143.477H169.03ZM170.28 142.25H111.98V144.75H170.28V142.25ZM107.324 142.25H100.136V144.75H107.324V142.25Z" fill="#201E43"/>
<path fill-rule="evenodd" clip-rule="evenodd" d="M120.344 65.9514C120.344 98.9801 150.293 126.196 188.856 129.871C184.023 135.773 176.56 139.777 168.058 140.406V140.425H98.8068C90.4046 140.425 76.368 136.909 76.368 121.512C76.368 106.115 87.2805 102.599 98.8068 102.599C99.297 102.599 99.7832 102.615 100.265 102.645C99.9302 100.917 99.8713 99.1366 99.7555 97.3213C98.9727 85.059 104.359 69.6048 120.363 64.5752C120.35 65.0337 120.344 65.492 120.344 65.9514Z" fill="#E8F0FE"/>
<path d="M141.384 70.7246C148.101 72.4903 153.405 77.7078 155.254 84.3501" stroke="#201E43" stroke-width="2.5" stroke-linecap="round"/>
<path d="M111.456 104.038C111.456 107.717 114.69 110.7 118.68 110.7C122.67 110.7 125.904 107.717 125.904 104.038" stroke="#201E43" stroke-width="2.5" stroke-linecap="round"/>
<path d="M141.384 104.038C141.384 107.717 144.618 110.7 148.608 110.7C152.598 110.7 155.832 107.717 155.832 104.038" stroke="#201E43" stroke-width="2.5" stroke-linecap="round"/>
<path d="M125.904 123H140.868" stroke="#201E43" stroke-width="2.5" stroke-linecap="round"/>
<path fill-rule="evenodd" clip-rule="evenodd" d="M71.369 61.7988H59.0407V64.2342H67.7591L58.3142 75.5994V77.8995H71.596V75.4641H61.9241L71.369 63.9411V61.7988ZM85.2102 77.4649H76.2442V79.2361H82.5848L75.7158 87.5017V89.1745H85.3753V87.4033H78.3412L85.2102 79.0229V77.4649Z" fill="#201E43"/>
</svg>
