<svg width="100" height="80" viewBox="0 0 100 80" fill="none" xmlns="http://www.w3.org/2000/svg">
<path d="M20.1076 60.9226L12.4596 27.5298C12.4596 27.5298 16.3714 42.9888 31.3163 42.9888C46.261 42.9888 49.9973 22.0659 49.9973 22.0659C49.9973 22.0659 53.7336 42.9888 68.6785 42.9888C83.6235 42.9888 87.5352 27.7659 87.5352 27.7659L79.8871 60.9226H20.1076Z" fill="#895E1A"/>
<path d="M49.9973 22.0659C49.9973 22.0659 46.261 42.9888 31.3163 42.9888C16.3714 42.9888 12.4596 27.5298 12.4596 27.5298L20.1076 60.9226H49.9973V22.0659Z" fill="#B08D57"/>
<path d="M50.0032 22.0663C54.1305 22.0663 57.4758 19.3899 57.4758 16.0883C57.4758 12.7868 54.1305 10.1104 50.0032 10.1104C45.8762 10.1104 42.5309 12.7868 42.5309 16.0883C42.5309 19.3899 45.8762 22.0663 50.0032 22.0663Z" fill="#895E1A"/>
<path d="M44.7164 20.3145C43.3551 19.1871 42.6019 17.677 42.6187 16.1096C42.6359 14.5422 43.4219 13.0429 44.8074 11.9345C46.193 10.8262 48.0668 10.1974 50.0262 10.1838C51.9855 10.1702 53.873 10.7728 55.2824 11.8617L44.7164 20.3145Z" fill="#B08D57"/>
<path d="M12.6356 27.545C15.7308 27.545 18.2399 25.5377 18.2399 23.0616C18.2399 20.5854 15.7308 18.5781 12.6356 18.5781C9.54039 18.5781 7.03125 20.5854 7.03125 23.0616C7.03125 25.5377 9.54039 27.545 12.6356 27.545Z" fill="#895E1A" stroke="#895E1A" stroke-linecap="round" stroke-linejoin="round"/>
<path d="M87.3657 27.796C90.4606 27.796 92.9699 25.7887 92.9699 23.3126C92.9699 20.8364 90.4606 18.8291 87.3657 18.8291C84.2703 18.8291 81.7614 20.8364 81.7614 23.3126C81.7614 25.7887 84.2703 27.796 87.3657 27.796Z" fill="#895E1A" stroke="#895E1A" stroke-linecap="round" stroke-linejoin="round"/>
<path d="M20.1118 69.8901H79.8914" stroke="#895E1A" stroke-linecap="round" stroke-linejoin="round"/>
<path d="M20.1076 60.9226L12.4596 27.5298C12.4596 27.5298 16.3714 42.9888 31.3163 42.9888C46.261 42.9888 49.9973 22.0659 49.9973 22.0659C49.9973 22.0659 53.7336 42.9888 68.6785 42.9888C83.6235 42.9888 87.5352 27.7659 87.5352 27.7659L79.8871 60.9226H20.1076Z" stroke="#895E1A" stroke-linecap="round" stroke-linejoin="round"/>
<path d="M50.0032 22.0663C54.1305 22.0663 57.4758 19.3899 57.4758 16.0883C57.4758 12.7868 54.1305 10.1104 50.0032 10.1104C45.8762 10.1104 42.5309 12.7868 42.5309 16.0883C42.5309 19.3899 45.8762 22.0663 50.0032 22.0663Z" stroke="#895E1A" stroke-linecap="round" stroke-linejoin="round"/>
</svg>
