<svg width="32" height="33" viewBox="0 0 32 33" fill="none" xmlns="http://www.w3.org/2000/svg">
<path d="M16.3066 13.7729V19.582H24.5441C24.1824 21.4502 23.0969 23.0321 21.4689 24.0957L26.4364 27.873C29.3307 25.2549 31.0005 21.4094 31.0005 16.8413C31.0005 15.7777 30.9031 14.7548 30.7222 13.7731L16.3066 13.7729Z" fill="#4285F4"/>
<path d="M16.3066 13.2729L15.8066 13.2729V13.7729V19.582V20.082H16.3066H23.9088C23.4768 21.5535 22.5372 22.8005 21.1955 23.6771L20.6022 24.0647L21.1663 24.4937L26.1338 28.271L26.4641 28.5222L26.7719 28.2438C29.782 25.5209 31.5005 21.5351 31.5005 16.8413C31.5005 15.747 31.4003 14.6938 31.2139 13.6825L31.1384 13.2731L30.7222 13.2731L16.3066 13.2729Z" stroke="black" stroke-opacity="0.07"/>
<path d="M7.7287 19.355L6.60833 20.1955L2.64258 23.2227C5.16113 28.1181 10.3231 31.4999 16.3064 31.4999C20.4389 31.4999 23.9036 30.1636 26.4362 27.8727L21.4687 24.0954C20.105 24.9954 18.3657 25.5409 16.3064 25.5409C12.3268 25.5409 8.94562 22.9091 7.73495 19.3636L7.7287 19.355Z" fill="#34A853"/>
<path d="M8.13398 19.0622L7.83586 18.6495L7.42865 18.955L6.30829 19.7955L6.30828 19.7955L6.30495 19.798L2.3392 22.8252L2.00648 23.0792L2.19797 23.4514C4.79981 28.5087 10.1306 31.9999 16.3064 31.9999C20.55 31.9999 24.138 30.6258 26.7716 28.2435L27.2184 27.8394L26.7388 27.4747L21.7713 23.6974L21.4891 23.4828L21.1932 23.6781C19.9175 24.5201 18.2754 25.0409 16.3064 25.0409C12.5522 25.0409 9.3535 22.5563 8.20813 19.2021L8.18399 19.1314L8.14024 19.0708L8.13398 19.0622Z" stroke="black" stroke-opacity="0.07"/>
<path d="M2.64181 9.77734C1.59827 11.7954 1 14.0727 1 16.5C1 18.9272 1.59827 21.2045 2.64181 23.2226C2.64181 23.2361 7.73468 19.3499 7.73468 19.3499C7.42856 18.4499 7.24762 17.4954 7.24762 16.4998C7.24762 15.5042 7.42856 14.5497 7.73468 13.6498L2.64181 9.77734Z" fill="#FBBC05"/>
<path d="M2.94445 9.37933L2.47091 9.01928L2.19768 9.54768C1.11912 11.6335 0.5 13.9892 0.5 16.5C0.5 19.0107 1.11912 21.3665 2.19768 23.4523L2.24928 23.4256C2.37596 23.5872 2.57296 23.7129 2.68355 23.7209C2.7375 23.7134 2.81396 23.6921 2.83724 23.6829C2.87051 23.6688 2.89517 23.6538 2.89816 23.652C2.91247 23.6435 2.92377 23.6358 2.92647 23.634C2.93508 23.6281 2.94349 23.6221 2.94907 23.6181C2.96163 23.609 2.9782 23.5968 2.99724 23.5827C3.03597 23.5539 3.09179 23.512 3.16161 23.4594C3.30157 23.3539 3.50106 23.2027 3.73989 23.0215C4.21769 22.6588 4.85457 22.174 5.49123 21.6891C6.12794 21.204 6.76463 20.7186 7.24213 20.3545L7.81912 19.9144L7.98078 19.791L8.02338 19.7585L8.0343 19.7502L8.03707 19.7481L8.03776 19.7475L8.03794 19.7474L7.73468 19.3499L8.038 19.7474L8.32383 19.5293L8.20805 19.1889C7.91735 18.3342 7.74762 17.4342 7.74762 16.4998C7.74762 15.5655 7.91735 14.6654 8.20805 13.8108L8.32404 13.4698L8.03731 13.2517L2.94445 9.37933Z" stroke="black" stroke-opacity="0.07"/>
<path d="M16.3067 7.47271C18.5609 7.47271 20.5646 8.23633 22.1648 9.70907L26.5479 5.41368C23.8901 2.98645 20.4394 1.5 16.3067 1.5C10.3234 1.5 5.16113 4.86817 2.64258 9.77727L7.73529 13.65C8.94579 10.1045 12.3271 7.47271 16.3067 7.47271Z" fill="#EA4335"/>
<path d="M21.8262 10.077L22.1756 10.3986L22.5147 10.0662L26.8978 5.77079L27.2753 5.40088L26.885 5.04448C24.1382 2.53584 20.5682 1 16.3067 1C10.1316 1 4.79986 4.47699 2.19771 9.54903L2.00651 9.92172L2.33992 10.1753L7.43263 14.048L7.98447 14.4676L8.20847 13.8115C9.35367 10.4573 12.5525 7.97271 16.3067 7.97271C18.4408 7.97271 20.3222 8.69275 21.8262 10.077Z" stroke="black" stroke-opacity="0.07"/>
</svg>
