<svg width="25" height="24" viewBox="0 0 25 24" fill="none" xmlns="http://www.w3.org/2000/svg">
<path d="M12.5 15C13.3333 15 14.0417 14.7083 14.625 14.125C15.2083 13.5417 15.5 12.8333 15.5 12C15.5 11.1667 15.2083 10.4583 14.625 9.875C14.0417 9.29167 13.3333 9 12.5 9C11.6667 9 10.9583 9.29167 10.375 9.875C9.79167 10.4583 9.5 11.1667 9.5 12C9.5 12.8333 9.79167 13.5417 10.375 14.125C10.9583 14.7083 11.6667 15 12.5 15ZM12.5 17C11.1167 17 9.9375 16.5125 8.9625 15.5375C7.9875 14.5625 7.5 13.3833 7.5 12C7.5 10.6167 7.9875 9.4375 8.9625 8.4625C9.9375 7.4875 11.1167 7 12.5 7C13.8833 7 15.0625 7.4875 16.0375 8.4625C17.0125 9.4375 17.5 10.6167 17.5 12C17.5 13.3833 17.0125 14.5625 16.0375 15.5375C15.0625 16.5125 13.8833 17 12.5 17ZM5.5 13H1.5V11H5.5V13ZM23.5 13H19.5V11H23.5V13ZM11.5 5V1H13.5V5H11.5ZM11.5 23V19H13.5V23H11.5ZM6.9 7.75L4.375 5.325L5.8 3.85L8.2 6.35L6.9 7.75ZM19.2 20.15L16.775 17.625L18.1 16.25L20.625 18.675L19.2 20.15ZM16.75 6.4L19.175 3.875L20.65 5.3L18.15 7.7L16.75 6.4ZM4.35 18.7L6.875 16.275L8.25 17.6L5.825 20.125L4.35 18.7Z" fill="#201E43"/>
</svg>
