<svg width="19" height="16" viewBox="0 0 19 16" fill="none" xmlns="http://www.w3.org/2000/svg">
<path d="M9.33333 16C9.15278 16 9 15.9375 8.875 15.8125L2.375 9.54167C2.30556 9.48611 2.21007 9.39583 2.08854 9.27083C1.96701 9.14583 1.77431 8.9184 1.51042 8.58854C1.24653 8.25868 1.01042 7.92014 0.802083 7.57292C0.59375 7.22569 0.407986 6.80556 0.244792 6.3125C0.0815972 5.81944 0 5.34028 0 4.875C0 3.34722 0.440972 2.15278 1.32292 1.29167C2.20486 0.430556 3.42361 0 4.97917 0C5.40972 0 5.84896 0.0746528 6.29688 0.223958C6.74479 0.373264 7.16146 0.574653 7.54688 0.828125C7.93229 1.0816 8.26389 1.31944 8.54167 1.54167C8.81945 1.76389 9.08333 2 9.33333 2.25C9.58333 2 9.84722 1.76389 10.125 1.54167C10.4028 1.31944 10.7344 1.0816 11.1198 0.828125C11.5052 0.574653 11.9219 0.373264 12.3698 0.223958C12.8177 0.0746528 13.2569 0 13.6875 0C15.2431 0 16.4618 0.430556 17.3438 1.29167C18.2257 2.15278 18.6667 3.34722 18.6667 4.875C18.6667 6.40972 17.8715 7.97222 16.2813 9.5625L9.79167 15.8125C9.66667 15.9375 9.51389 16 9.33333 16Z" fill="#E34C5E"/>
</svg>
