<svg width="20" height="20" viewBox="0 0 20 20" fill="none" xmlns="http://www.w3.org/2000/svg">
<path d="M3.89573 11.4072L3.87069 11.383L3.84353 11.3613C3.81171 11.3358 3.74251 11.2728 3.62629 11.1533C3.5327 11.057 3.36004 10.8553 3.09607 10.5253C2.85226 10.2205 2.63553 9.90952 2.4452 9.59232C2.27196 9.30358 2.10724 8.93663 1.9568 8.48211C1.81588 8.05633 1.75 7.65675 1.75 7.28027C1.75 5.90308 2.14254 4.92126 2.84687 4.23357C3.55442 3.54273 4.5656 3.15527 5.97917 3.15527C6.32171 3.15527 6.68091 3.21448 7.05971 3.34074C7.44734 3.46995 7.80501 3.64316 8.13477 3.86003L8.54688 3.2334L8.13477 3.86003C8.50611 4.10424 8.81792 4.32841 9.07315 4.53259C9.32945 4.73763 9.57269 4.95529 9.803 5.1856L10.3333 5.71593L10.8637 5.1856C11.094 4.95529 11.3372 4.73763 11.5935 4.53259C11.8487 4.32841 12.1606 4.10424 12.5319 3.86003C12.8617 3.64316 13.2193 3.46995 13.607 3.34074C13.9858 3.21448 14.345 3.15527 14.6875 3.15527C16.1011 3.15527 17.1122 3.54273 17.8198 4.23357C18.5241 4.92126 18.9167 5.90308 18.9167 7.28027C18.9167 8.5383 18.2672 9.91954 16.7558 11.4325L10.3334 17.6179L3.89573 11.4072Z" stroke="#201E43" stroke-width="1.5"/>
</svg>
