<svg width="19" height="17" viewBox="0 0 19 17" fill="none" xmlns="http://www.w3.org/2000/svg">
<path d="M2.89573 9.40694L2.87069 9.38278L2.84353 9.36105C2.81171 9.3356 2.74251 9.2726 2.62629 9.15305C2.5327 9.05679 2.36004 8.85502 2.09607 8.52505C1.85226 8.22029 1.63553 7.90928 1.4452 7.59207C1.27196 7.30334 1.10724 6.93638 0.956804 6.48186C0.815877 6.05608 0.75 5.65651 0.75 5.28003C0.75 3.90284 1.14254 2.92102 1.84687 2.23333C2.55442 1.54249 3.5656 1.15503 4.97917 1.15503C5.32171 1.15503 5.68091 1.21424 6.05971 1.3405C6.44734 1.46971 6.80501 1.64292 7.13477 1.85979L7.54688 1.23315L7.13477 1.85979C7.50611 2.104 7.81792 2.32817 8.07315 2.53235C8.32945 2.73739 8.57269 2.95505 8.803 3.18536L9.33333 3.71569L9.86366 3.18536C10.094 2.95505 10.3372 2.73739 10.5935 2.53235C10.8487 2.32817 11.1606 2.104 11.5319 1.85978C11.8617 1.64292 12.2193 1.46971 12.607 1.3405C12.9858 1.21424 13.345 1.15503 13.6875 1.15503C15.1011 1.15503 16.1122 1.54249 16.8198 2.23333C17.5241 2.92102 17.9167 3.90284 17.9167 5.28003C17.9167 6.53805 17.2672 7.9193 15.7558 9.43229L9.33339 15.6176L2.89573 9.40694Z" stroke="#EEEEEE" stroke-width="1.5"/>
</svg>
