<svg width="24" height="25" viewBox="0 0 24 25" fill="none" xmlns="http://www.w3.org/2000/svg">
<path d="M12 22.9507C11.7667 22.9507 11.5667 22.884 11.4 22.7507C11.2333 22.6174 11.1083 22.4424 11.025 22.2257C10.7083 21.2923 10.3083 20.4174 9.825 19.6007C9.35833 18.784 8.7 17.8257 7.85 16.7257C7 15.6257 6.30833 14.5757 5.775 13.5757C5.25833 12.5757 5 11.3673 5 9.95068C5 8.00068 5.675 6.35068 7.025 5.00068C8.39167 3.63402 10.05 2.95068 12 2.95068C13.95 2.95068 15.6 3.63402 16.95 5.00068C18.3167 6.35068 19 8.00068 19 9.95068C19 11.4674 18.7083 12.734 18.125 13.7507C17.5583 14.7507 16.9 15.7423 16.15 16.7257C15.25 17.9257 14.5667 18.9257 14.1 19.7257C13.65 20.509 13.275 21.3424 12.975 22.2257C12.8917 22.459 12.7583 22.6424 12.575 22.7757C12.4083 22.8924 12.2167 22.9507 12 22.9507ZM12 12.4507C12.7 12.4507 13.2917 12.209 13.775 11.7257C14.2583 11.2424 14.5 10.6507 14.5 9.95068C14.5 9.25068 14.2583 8.65902 13.775 8.17568C13.2917 7.69235 12.7 7.45068 12 7.45068C11.3 7.45068 10.7083 7.69235 10.225 8.17568C9.74167 8.65902 9.5 9.25068 9.5 9.95068C9.5 10.6507 9.74167 11.2424 10.225 11.7257C10.7083 12.209 11.3 12.4507 12 12.4507Z" fill="#EEEEEE"/>
</svg>
