<svg width="14" height="21" viewBox="0 0 14 21" fill="none" xmlns="http://www.w3.org/2000/svg">
<path d="M7 20.7705C6.76667 20.7705 6.56667 20.7038 6.4 20.5705C6.23333 20.4372 6.10833 20.2622 6.025 20.0455C5.70833 19.1122 5.30833 18.2372 4.825 17.4205C4.35833 16.6038 3.7 15.6455 2.85 14.5455C2 13.4455 1.30833 12.3955 0.775 11.3955C0.258333 10.3955 0 9.18717 0 7.77051C0 5.82051 0.675 4.17051 2.025 2.82051C3.39167 1.45384 5.05 0.770508 7 0.770508C8.95 0.770508 10.6 1.45384 11.95 2.82051C13.3167 4.17051 14 5.82051 14 7.77051C14 9.28717 13.7083 10.5538 13.125 11.5705C12.5583 12.5705 11.9 13.5622 11.15 14.5455C10.25 15.7455 9.56667 16.7455 9.1 17.5455C8.65 18.3288 8.275 19.1622 7.975 20.0455C7.89167 20.2788 7.75833 20.4622 7.575 20.5955C7.40833 20.7122 7.21667 20.7705 7 20.7705ZM7 10.2705C7.7 10.2705 8.29167 10.0288 8.775 9.54551C9.25833 9.06217 9.5 8.47051 9.5 7.77051C9.5 7.07051 9.25833 6.47884 8.775 5.99551C8.29167 5.51217 7.7 5.27051 7 5.27051C6.3 5.27051 5.70833 5.51217 5.225 5.99551C4.74167 6.47884 4.5 7.07051 4.5 7.77051C4.5 8.47051 4.74167 9.06217 5.225 9.54551C5.70833 10.0288 6.3 10.2705 7 10.2705Z" fill="#201E43"/>
</svg>
