<svg width="20" height="20" viewBox="0 0 20 20" fill="none" xmlns="http://www.w3.org/2000/svg">
<path d="M4 2.14286V2.85714H3C1.3 2.85714 0 3.78571 0 5V17.8571C0 19.0714 1.3 20 3 20H13C14.7 20 16 19.0714 16 17.8571V17.1429H17C18.7 17.1429 20 16.2143 20 15V2.14286C20 0.928571 18.7 0 17 0H7C5.3 0 4 0.928571 4 2.14286ZM14 17.8571C14 18.2857 13.6 18.5714 13 18.5714H3C2.4 18.5714 2 18.2857 2 17.8571V5C2 4.57143 2.4 4.28571 3 4.28571H13C13.6 4.28571 14 4.57143 14 5V17.8571ZM18 2.14286V15C18 15.4286 17.6 15.7143 17 15.7143H16V5C16 3.78571 14.7 2.85714 13 2.85714H6V2.14286C6 1.71429 6.4 1.42857 7 1.42857H17C17.6 1.42857 18 1.71429 18 2.14286Z" fill="#EEEEEE"/>
</svg>
