<svg width="17" height="18" viewBox="0 0 17 18" fill="none" xmlns="http://www.w3.org/2000/svg">
<path d="M3.4 2.32143V2.92857H2.55C1.105 2.92857 0 3.71786 0 4.75V15.6786C0 16.7107 1.105 17.5 2.55 17.5H11.05C12.495 17.5 13.6 16.7107 13.6 15.6786V15.0714H14.45C15.895 15.0714 17 14.2821 17 13.25V2.32143C17 1.28929 15.895 0.5 14.45 0.5H5.95C4.505 0.5 3.4 1.28929 3.4 2.32143ZM11.9 15.6786C11.9 16.0429 11.56 16.2857 11.05 16.2857H2.55C2.04 16.2857 1.7 16.0429 1.7 15.6786V4.75C1.7 4.38571 2.04 4.14286 2.55 4.14286H11.05C11.56 4.14286 11.9 4.38571 11.9 4.75V15.6786ZM15.3 2.32143V13.25C15.3 13.6143 14.96 13.8571 14.45 13.8571H13.6V4.75C13.6 3.71786 12.495 2.92857 11.05 2.92857H5.1V2.32143C5.1 1.95714 5.44 1.71429 5.95 1.71429H14.45C14.96 1.71429 15.3 1.95714 15.3 2.32143Z" fill="#EEEEEE"/>
</svg>
