<svg width="21" height="20" viewBox="0 0 21 20" fill="none" xmlns="http://www.w3.org/2000/svg">
<path d="M9.75 15H11.75V11H15.75V9H11.75V5H9.75V9H5.75V11H9.75V15ZM10.75 20C9.36667 20 8.06667 19.7417 6.85 19.225C5.63333 18.6917 4.575 17.975 3.675 17.075C2.775 16.175 2.05833 15.1167 1.525 13.9C1.00833 12.6833 0.75 11.3833 0.75 10C0.75 8.61667 1.00833 7.31667 1.525 6.1C2.05833 4.88333 2.775 3.825 3.675 2.925C4.575 2.025 5.63333 1.31667 6.85 0.799999C8.06667 0.266666 9.36667 0 10.75 0C12.1333 0 13.4333 0.266666 14.65 0.799999C15.8667 1.31667 16.925 2.025 17.825 2.925C18.725 3.825 19.4333 4.88333 19.95 6.1C20.4833 7.31667 20.75 8.61667 20.75 10C20.75 11.3833 20.4833 12.6833 19.95 13.9C19.4333 15.1167 18.725 16.175 17.825 17.075C16.925 17.975 15.8667 18.6917 14.65 19.225C13.4333 19.7417 12.1333 20 10.75 20ZM10.75 18C12.9833 18 14.875 17.225 16.425 15.675C17.975 14.125 18.75 12.2333 18.75 10C18.75 7.76667 17.975 5.875 16.425 4.325C14.875 2.775 12.9833 2 10.75 2C8.51667 2 6.625 2.775 5.075 4.325C3.525 5.875 2.75 7.76667 2.75 10C2.75 12.2333 3.525 14.125 5.075 15.675C6.625 17.225 8.51667 18 10.75 18Z" fill="#EEEEEE"/>
</svg>
