<svg width="24" height="25" viewBox="0 0 24 25" fill="none" xmlns="http://www.w3.org/2000/svg">
<path d="M5 21.7705C4.45 21.7705 3.975 21.5788 3.575 21.1955C3.19167 20.7955 3 20.3205 3 19.7705V5.77051C3 5.22051 3.19167 4.75384 3.575 4.37051C3.975 3.97051 4.45 3.77051 5 3.77051H19C19.55 3.77051 20.0167 3.97051 20.4 4.37051C20.8 4.75384 21 5.22051 21 5.77051V19.7705C21 20.3205 20.8 20.7955 20.4 21.1955C20.0167 21.5788 19.55 21.7705 19 21.7705H5ZM5 19.7705H19V5.77051H5V19.7705ZM6 17.7705H18L14.25 12.7705L11.25 16.7705L9 13.7705L6 17.7705ZM5 19.7705V5.77051V19.7705Z" fill="#EEEEEE"/>
</svg>
