<svg width="18" height="19" viewBox="0 0 18 19" fill="none" xmlns="http://www.w3.org/2000/svg">
<path d="M2 18.5903C1.45 18.5903 0.975 18.3987 0.575 18.0153C0.191667 17.6153 0 17.1403 0 16.5903V2.59033C0 2.04033 0.191667 1.57367 0.575 1.19033C0.975 0.790332 1.45 0.590332 2 0.590332H16C16.55 0.590332 17.0167 0.790332 17.4 1.19033C17.8 1.57367 18 2.04033 18 2.59033V16.5903C18 17.1403 17.8 17.6153 17.4 18.0153C17.0167 18.3987 16.55 18.5903 16 18.5903H2ZM2 16.5903H16V2.59033H2V16.5903ZM3 14.5903H15L11.25 9.59033L8.25 13.5903L6 10.5903L3 14.5903ZM2 16.5903V2.59033V16.5903Z" fill="#201E43"/>
</svg>
