<svg width="22" height="21" viewBox="0 0 22 21" fill="none" xmlns="http://www.w3.org/2000/svg">
<path d="M8.25001 20.5L7.85001 17.3C7.63335 17.2167 7.42918 17.1167 7.23751 17C7.04585 16.8833 6.85835 16.7583 6.67501 16.625L3.70001 17.875L0.950012 13.125L3.52501 11.175C3.50835 11.0583 3.50001 10.9458 3.50001 10.8375V10.1625C3.50001 10.0542 3.50835 9.94167 3.52501 9.825L0.950012 7.875L3.70001 3.125L6.67501 4.375C6.85835 4.24167 7.05001 4.11667 7.25001 4C7.45001 3.88333 7.65001 3.78333 7.85001 3.7L8.25001 0.5H13.75L14.15 3.7C14.3667 3.78333 14.5708 3.88333 14.7625 4C14.9542 4.11667 15.1417 4.24167 15.325 4.375L18.3 3.125L21.05 7.875L18.475 9.825C18.4917 9.94167 18.5 10.0542 18.5 10.1625V10.8375C18.5 10.9458 18.4833 11.0583 18.45 11.175L21.025 13.125L18.275 17.875L15.325 16.625C15.1417 16.7583 14.95 16.8833 14.75 17C14.55 17.1167 14.35 17.2167 14.15 17.3L13.75 20.5H8.25001ZM11.05 14C12.0167 14 12.8417 13.6583 13.525 12.975C14.2083 12.2917 14.55 11.4667 14.55 10.5C14.55 9.53333 14.2083 8.70833 13.525 8.025C12.8417 7.34167 12.0167 7 11.05 7C10.0667 7 9.23751 7.34167 8.56251 8.025C7.88751 8.70833 7.55001 9.53333 7.55001 10.5C7.55001 11.4667 7.88751 12.2917 8.56251 12.975C9.23751 13.6583 10.0667 14 11.05 14Z" fill="#201E43"/>
</svg>
